<svg xmlns="http://www.w3.org/2000/svg" version="1.1" xmlns:xlink="http://www.w3.org/1999/xlink" xmlns:svgjs="http://svgjs.dev/svgjs" width="1440" height="560" preserveAspectRatio="none" viewBox="0 0 1440 560"><g mask="url(&quot;#SvgjsMask2000&quot;)" fill="none"><rect width="1440" height="560" x="0" y="0" fill="#1e3266"></rect><path d="M1488 560L0 560 L0 278.72Q58.97 217.69, 120 276.66Q128.42 213.08, 192 221.5Q235.62 193.12, 264 236.74Q317.32 218.06, 336 271.39Q390.39 253.78, 408 308.18Q414.14 242.32, 480 248.47Q507.35 203.82, 552 231.17Q601.64 160.81, 672 210.45Q734.89 201.34, 744 264.23Q782.24 182.47, 864 220.71Q917.17 153.88, 984 207.05Q1097.64 200.69, 1104 314.34Q1109.18 247.52, 1176 252.71Q1225.48 182.19, 1296 231.67Q1326.85 190.51, 1368 221.36Q1465.96 199.33, 1488 297.29z" fill="#182f5d"></path><path d="M1488 560L0 560 L0 291.34Q69.71 241.05, 120 310.77Q198.7 317.47, 192 396.17Q175.41 307.58, 264 290.99Q372.77 279.76, 384 388.53Q414.18 298.71, 504 328.89Q578.12 283, 624 357.12Q695.27 308.39, 744 379.66Q754.31 317.97, 816 328.27Q886.75 279.02, 936 349.78Q1007.95 301.73, 1056 373.68Q1110.45 308.13, 1176 362.59Q1247.7 314.29, 1296 385.99Q1346.15 364.14, 1368 414.3Q1422.94 349.24, 1488 404.18z" fill="#25467d"></path><path d="M1464 560L0 560 L0 438.02Q84.03 402.05, 120 486.08Q148.53 442.61, 192 471.14Q227.22 386.36, 312 421.57Q351.28 340.85, 432 380.12Q521.01 349.13, 552 438.14Q626.6 392.74, 672 467.33Q723.62 398.94, 792 450.56Q828.57 367.13, 912 403.7Q989.66 361.37, 1032 439.03Q1092.11 427.13, 1104 487.24Q1145.79 409.02, 1224 450.81Q1252.58 359.39, 1344 387.97Q1423.55 347.52, 1464 427.08z" fill="rgba(53, 108, 177, 1)"></path><path d="M1464 560L0 560 L0 482.35Q64.07 474.42, 72 538.49Q140.75 487.24, 192 555.98Q219.04 463.02, 312 490.07Q388.4 446.47, 432 522.86Q504.13 474.99, 552 547.11Q606.34 481.45, 672 535.79Q690.59 482.38, 744 500.97Q771.39 456.36, 816 483.75Q895.83 443.57, 936 523.4Q984.78 500.18, 1008 548.97Q1040.86 461.83, 1128 494.68Q1169.95 464.63, 1200 506.59Q1271.39 505.98, 1272 577.37Q1287 520.37, 1344 535.37Q1384.62 455.99, 1464 496.61z" fill="rgba(255, 255, 255, 1)"></path></g><defs><mask id="SvgjsMask2000"><rect width="1440" height="560" fill="#ffffff"></rect></mask></defs></svg>